<?xml version="1.0" encoding="utf-8"?>
<!-- Generator: Adobe Illustrator 27.5.0, SVG Export Plug-In . SVG Version: 6.00 Build 0)  -->
<svg version="1.1" id="_x3C_Layer_x3E_" xmlns="http://www.w3.org/2000/svg" xmlns:xlink="http://www.w3.org/1999/xlink" x="0px"
	 y="0px" viewBox="0 0 2832.012 1820" style="enable-background:new 0 0 2832.012 1820;" xml:space="preserve">
<rect x="0" style="fill:#FAFAFA;" width="2832.012" height="1820"/>
<g>
	<g>
		<path style="fill:#33A4FF;" d="M688.869,404.333c-28.352,40.825-47.42,85.353-57.661,131.057l-0.042,0.059
			c-6.873,30.791-9.787,62.12-8.767,93.263c3.495,114.076,59.219,225.052,160.146,295.143
			c169.382,117.631,401.987,75.689,519.577-93.636c117.632-169.384,75.69-401.989-93.693-519.62
			c-57.716-40.081-122.797-61.657-188.144-65.9c-107.889-7.069-216.633,32.952-294.333,114.261
			C712.587,372.855,700.185,388.04,688.869,404.333z"/>
	</g>
	<g>
		<path style="fill:#007FE6;" d="M670.65,305.966l324.63,311.117l29.893-448.745C895.222,159.823,764.239,208.029,670.65,305.966z"
			/>
	</g>
	<g>
		<path style="fill:#0064B5;" d="M678.597,397.157c-29.283,42.167-48.979,88.16-59.557,135.367l376.24,84.559L716.9,350.29
			C703.095,364.644,690.284,380.328,678.597,397.157z"/>
	</g>
	<g>
		<path style="fill:#004E8C;" d="M595.99,527.344l-0.046,0.065c-7.534,33.753-10.729,68.095-9.608,102.23l408.944-12.557
			L595.99,527.344z"/>
	</g>
</g>
<g>
	<g>
		
			<rect x="1863.482" y="1254.146" transform="matrix(0.9977 -0.0674 0.0674 0.9977 -86.6133 128.7599)" style="fill:#81A358;" width="2.201" height="187.238"/>
	</g>
	<g>
		
			<rect x="1822.654" y="930.262" transform="matrix(0.9982 -0.0604 0.0604 0.9982 -68.1397 112.2316)" style="fill:#81A358;" width="2.201" height="507.607"/>
	</g>
	<g>
		<rect x="1851.832" y="857.169" style="fill:#81A358;" width="2.201" height="591.086"/>
	</g>
	<g>
		
			<rect x="1700.175" y="1265.928" transform="matrix(0.0227 -0.9997 0.9997 0.0227 567.9214 3114.9995)" style="fill:#81A358;" width="353.987" height="2.201"/>
	</g>
	<g>
		<path style="fill:#71A334;" d="M1851.643,978.078c0,0-61.441-52.397-43.206-104.689c18.236-52.293,108.263-23.99,79.662,70.352
			C1888.099,943.74,1878.803,968.074,1851.643,978.078z"/>
	</g>
	<g>
		<polygon style="fill:#60892C;" points="1870.408,951.716 1868.217,951.53 1872.976,895.428 1875.89,887.102 		"/>
	</g>
	<g>
		<polygon style="fill:#60892C;" points="1840.174,953.06 1837.973,953.016 1839.769,864.348 1841.685,878.474 		"/>
	</g>
	<g>
		<polygon style="fill:#60892C;" points="1828.808,938.608 1818.1,877.766 1821.978,887.102 1830.975,938.227 		"/>
	</g>
	<g>
		<path style="fill:#86BC44;" d="M1812.813,1064.076c0,0-53.249-68.924-25.529-117.632c27.719-48.708,206.113-8.443,125.464,167.336
			c-80.649,175.778-142.971,57.549-142.971,57.549L1812.813,1064.076z"/>
	</g>
	<g>
		<polygon style="fill:#7BA840;" points="1859.456,1189.612 1857.328,1189.047 1905.712,1007.01 1911.479,993.882 		"/>
	</g>
	<g>
		<polygon style="fill:#7BA840;" points="1844.156,1172.29 1841.957,1172.189 1851.274,967.019 1854.002,955.445 		"/>
	</g>
	<g>
		<polygon style="fill:#7BA840;" points="1822.657,1104.999 1813.514,958.295 1816.486,970.606 1824.854,1104.861 		"/>
	</g>
	<g>
		<path style="fill:#70A333;" d="M1852.933,1126.044c0,0-8.024-118.255-75.862-74.693c-67.838,43.561-84.615,214.32,75.862,266.209
			V1126.044z"/>
	</g>
	<g>
		<polygon style="fill:#699331;" points="1863.566,1239.722 1794.866,1073.715 1791.441,1059.679 1865.6,1238.88 		"/>
	</g>
	<g>
		<path style="fill:#699331;" d="M1874.754,1251.433c-6.152-0.224-16.295-7.894-31.011-23.45
			c-11.468-12.123-25.589-28.952-41.969-50.02c-27.869-35.846-44.965-60.669-45.214-61.03l-6.198-12.629
			c0.251,0.36,25.323,36.518,53.155,72.314c46.307,59.56,64.342,72.362,71.315,72.614L1874.754,1251.433z"/>
	</g>
	<g>
		<path style="fill:#699331;" d="M1885.028,1273.731c-14.141,0-43.07-15.713-85.986-46.705
			c-31.854-23.004-59.974-46.311-60.254-46.543l8.812,4.341c10.704,8.687,104.679,86.706,137.429,86.706V1273.731z"/>
	</g>
	<g>
		<path style="fill:#699331;" d="M1789.096,1266.169c1.684,0.92,11.945,2.623,38.416,7.185c14.752,2.541,50.729,8.492,66.18,8.868
			l-0.054,2.2c-15.806-0.384-52.488-6.476-67.526-9.077c-12.211-2.111-24.594-4.411-33.975-6.306
			c-15.002-3.031-15.533-3.592-15.884-3.962L1789.096,1266.169z"/>
	</g>
	<g>
		<path style="fill:#B1D045;" d="M1874.703,1385.48c0,0-56.055-59.067-42.924-149.817c13.129-90.75,115.252-90.65,114.521-2.49
			C1945.572,1321.332,1927.091,1345.852,1874.703,1385.48z"/>
	</g>
	<g>
		<polygon style="fill:#9EB24E;" points="1879.107,1378.326 1877.169,1377.799 1905.144,1192.263 1909.113,1179.789 
			1881.16,1366.144 1934.933,1212.982 1935.345,1218.62 		"/>
	</g>
	<g>
		<polygon style="fill:#9EB24E;" points="1874.133,1379.72 1844.104,1236.153 1843.85,1225.1 1873.632,1366.418 1865.664,1187.477 
			1868.914,1205.767 1876.164,1379.146 		"/>
	</g>
	<linearGradient id="SVGID_1_" gradientUnits="userSpaceOnUse" x1="1777.799" y1="1494.0127" x2="1928.0664" y2="1494.0127">
		<stop  offset="0" style="stop-color:#BAD0DE"/>
		<stop  offset="1" style="stop-color:#F5F2FF"/>
	</linearGradient>
	<polygon style="fill:url(#SVGID_1_);" points="1928.066,1437.473 1892.582,1550.553 1813.284,1550.553 1777.799,1437.473 	"/>
	<defs>
		<filter id="Adobe_OpacityMaskFilter" filterUnits="userSpaceOnUse" x="1777.799" y="1437.473" width="150.268" height="113.08">
			<feFlood  style="flood-color:white;flood-opacity:1" result="back"/>
			<feBlend  in="SourceGraphic" in2="back" mode="normal"/>
		</filter>
	</defs>
	
		<mask maskUnits="userSpaceOnUse" x="1777.799" y="1437.473" width="150.268" height="113.08" id="SVGID_00000115505983635155579370000013315197118918592671_">
		<g style="filter:url(#Adobe_OpacityMaskFilter);">
			<defs>
				
					<filter id="Adobe_OpacityMaskFilter_00000001658352350122899810000017195780838154714552_" filterUnits="userSpaceOnUse" x="1777.799" y="1437.473" width="150.268" height="113.08">
					<feFlood  style="flood-color:white;flood-opacity:1" result="back"/>
					<feBlend  in="SourceGraphic" in2="back" mode="normal"/>
				</filter>
			</defs>
			
				<mask maskUnits="userSpaceOnUse" x="1777.799" y="1437.473" width="150.268" height="113.08" id="SVGID_00000115505983635155579370000013315197118918592671_">
				<g style="filter:url(#Adobe_OpacityMaskFilter_00000001658352350122899810000017195780838154714552_);">
				</g>
			</mask>
			
				<linearGradient id="SVGID_00000137094640137576919790000008764554288975069579_" gradientUnits="userSpaceOnUse" x1="1777.799" y1="1494.0127" x2="1928.0664" y2="1494.0127">
				<stop  offset="0" style="stop-color:#FFFFFF"/>
				<stop  offset="0.9948" style="stop-color:#000000"/>
			</linearGradient>
			
				<path style="mask:url(#SVGID_00000115505983635155579370000013315197118918592671_);fill:url(#SVGID_00000137094640137576919790000008764554288975069579_);" d="
				M1928.066,1437.473c0,0-78.117,12.32-78.117,113.08h-36.665l-35.485-113.08H1928.066z"/>
		</g>
	</mask>
	
		<linearGradient id="SVGID_00000085938401628025078300000010200744541778007718_" gradientUnits="userSpaceOnUse" x1="1777.799" y1="1494.0127" x2="1928.0664" y2="1494.0127">
		<stop  offset="0" style="stop-color:#9FA0AD"/>
		<stop  offset="0.9948" style="stop-color:#55B5FF"/>
	</linearGradient>
	<path style="fill:url(#SVGID_00000085938401628025078300000010200744541778007718_);" d="M1928.066,1437.473
		c0,0-78.117,12.32-78.117,113.08h-36.665l-35.485-113.08H1928.066z"/>
	<path style="fill:#454342;" d="M1799.961,1559.389v-0.009c0.005-0.019,0.007-0.037,0.012-0.057L1799.961,1559.389z"/>
</g>
<rect x="1053.451" y="1237.48" style="fill:#918783;" width="19.964" height="251.985"/>
<rect x="904.008" y="1210.2" style="fill:#C9BCB6;" width="313.985" height="34.556"/>
<path style="fill:#C9BCB6;" d="M1067.39,1099.982c0,0-7.915,32.014,29.356,39.289c37.271,7.274,83.105,16.561,83.105,74.057
	h-129.263L1067.39,1099.982z"/>
<path style="fill:#C9BCB6;" d="M904.008,1244.756L794.236,783.413c0,0,198.447-31.002,222.09,58.114
	c23.643,89.115,62.536,353.82,109.822,370.189C1173.434,1228.084,904.008,1244.756,904.008,1244.756z"/>
<path style="fill:#BFB2AC;" d="M1257.231,1554.52c0,9.064-7.349,16.414-16.414,16.414c-9.066,0-16.415-7.35-16.415-16.414
	c0-9.065,7.349-16.415,16.415-16.415C1249.883,1538.104,1257.231,1545.454,1257.231,1554.52z"/>
<polygon style="fill:#918783;" points="887.593,1538.255 891.749,1549.947 1067.39,1495.526 1058.973,1471.847 "/>
<polygon style="fill:#918783;" points="1240.817,1538.255 1236.66,1549.947 1061.02,1495.526 1068.738,1470.36 "/>
<polygon style="fill:#918783;" points="1117.066,1548.696 1117.066,1562.3 1061.02,1495.526 1068.738,1470.36 "/>
<path style="fill:#BFB2AC;" d="M1118.462,1554.52c0,9.064-7.35,16.414-16.416,16.414c-9.065,0-16.413-7.35-16.413-16.414
	c0-9.065,7.348-16.415,16.413-16.415C1111.112,1538.104,1118.462,1545.454,1118.462,1554.52z"/>
<path style="fill:#BFB2AC;" d="M904.008,1554.52c0,9.064-7.35,16.414-16.415,16.414c-9.065,0-16.415-7.35-16.415-16.414
	c0-9.065,7.35-16.415,16.415-16.415C896.658,1538.104,904.008,1545.454,904.008,1554.52z"/>
<path style="fill:#D6985E;" d="M1355.049,1034.813v10.368h494.317v-10.368c0-9.665-6.498-17.5-14.513-17.5h-465.289
	C1361.551,1017.313,1355.049,1025.148,1355.049,1034.813z"/>
<path style="fill:#807066;" d="M1671.976,1550.838h149.373v-23.892h-134.704c-8.102,0-14.669,6.567-14.669,14.669V1550.838z"/>
<rect x="1792.123" y="1045.182" transform="matrix(-1 -1.224647e-16 1.224647e-16 -1 3603.9873 2596.0195)" style="fill:#807066;" width="19.741" height="505.656"/>
<rect x="1752.463" y="1045.182" transform="matrix(-1 -1.224647e-16 1.224647e-16 -1 3524.666 2596.0195)" style="fill:#807066;" width="19.74" height="505.656"/>
<rect x="1612.375" y="726.481" style="fill:#6E6760;" width="11.618" height="257.521"/>
<g>
	<path style="fill:#918880;" d="M1640.86,1017.313h86.93v-5.269h-86.93c-4.53,0-7.791-1.077-9.692-3.202
		c-2.291-2.563-1.936-6.01-1.931-6.045l0.021-0.167l-0.003-0.147V890.151h-5.269v112.203c-0.094,1.074-0.296,5.965,3.188,9.925
		C1630.113,1015.619,1634.718,1017.313,1640.86,1017.313z"/>
</g>
<path style="fill:#6E6760;" d="M1524.78,1008.086h89.38v9.227h-97.848v-0.758C1516.313,1011.878,1520.104,1008.086,1524.78,1008.086
	z"/>
<path style="fill:#BC8551;" d="M1564.789,1045.182h284.577v-10.368c0-9.665-6.688-17.5-14.937-17.5h-225.085L1564.789,1045.182z"/>
<g>
	
		<linearGradient id="SVGID_00000168107236870926608810000008543326523247836844_" gradientUnits="userSpaceOnUse" x1="1716.8862" y1="1014.4863" x2="1716.8862" y2="980.3392">
		<stop  offset="0" style="stop-color:#FF9F55"/>
		<stop  offset="1" style="stop-color:#FFD255"/>
	</linearGradient>
	<path style="fill:url(#SVGID_00000168107236870926608810000008543326523247836844_);" d="M1781.494,1017.31h-120.429
		c-4.854,0-8.787-3.933-8.787-8.787v-14.265c0-4.854,3.933-8.787,8.787-8.787h120.429V1017.31z"/>
	<path style="fill:#FF9F55;" d="M1802.178,988.749v25.286h2.112v3.277h-87.292c-4.853,0-8.787-3.934-8.787-8.787V994.26
		c0-4.854,3.934-8.787,8.787-8.787h87.292v3.276H1802.178z"/>
	<path style="fill:#EFF7FE;" d="M1802.176,1014.034h-78.734c-4.854,0-8.787-3.935-8.787-8.788v-7.71
		c0-4.853,3.934-8.788,8.787-8.788h78.734V1014.034z"/>
	
		<linearGradient id="SVGID_00000010305264489992768210000012966954076507524785_" gradientUnits="userSpaceOnUse" x1="1715.6812" y1="937.4912" x2="1715.6812" y2="984.7626">
		<stop  offset="0" style="stop-color:#40D5E6"/>
		<stop  offset="1" style="stop-color:#5577FF"/>
	</linearGradient>
	<path style="fill:url(#SVGID_00000010305264489992768210000012966954076507524785_);" d="M1787.121,985.47h-131.839
		c-6.098,0-11.041-4.942-11.041-11.041v-14.945c0-6.099,4.943-11.042,11.041-11.042h131.839V985.47z"/>
	<path style="fill:#5284FC;" d="M1810.507,952.254v29.406h1.819v3.813h-71.704c-6.099,0-11.042-4.944-11.042-11.042v-14.946
		c0-6.099,4.943-11.042,11.042-11.042h71.704v3.812H1810.507z"/>
	<path style="fill:#EFF7FE;" d="M1810.505,981.659h-64.334c-6.099,0-11.042-4.944-11.042-11.042v-7.323
		c0-6.099,4.943-11.041,11.042-11.041h64.334V981.659z"/>
	
		<linearGradient id="SVGID_00000109736354180664912700000001619715038319866262_" gradientUnits="userSpaceOnUse" x1="1748.2139" y1="939.7595" x2="1748.2139" y2="904.4175">
		<stop  offset="0" style="stop-color:#FF9F55"/>
		<stop  offset="1" style="stop-color:#FFD255"/>
	</linearGradient>
	<path style="fill:url(#SVGID_00000109736354180664912700000001619715038319866262_);" d="M1692.138,948.435h100.203
		c6.599,0,11.949-5.351,11.949-11.949v-21.499c0-6.6-5.351-11.949-11.949-11.949h-100.203V948.435z"/>
	<path style="fill:#FF9F55;" d="M1674.187,907.712v36.052h-1.833v4.673h71.439c6.601,0,11.95-5.35,11.95-11.948v-21.5
		c0-6.6-5.35-11.949-11.95-11.949h-71.439v4.673H1674.187z"/>
	<path style="fill:#EFF7FE;" d="M1674.188,943.762h63.176c6.559,0,11.877-5.317,11.877-11.877v-12.297
		c0-6.561-5.318-11.878-11.877-11.878h-63.176V943.762z"/>
	
		<linearGradient id="SVGID_00000078744867149442532080000015035360933222541963_" gradientUnits="userSpaceOnUse" x1="1707.7661" y1="844.7391" x2="1707.7661" y2="884.4423">
		<stop  offset="0" style="stop-color:#40D5E6"/>
		<stop  offset="1" style="stop-color:#5577FF"/>
	</linearGradient>
	<path style="fill:url(#SVGID_00000078744867149442532080000015035360933222541963_);" d="M1767.173,903.026h-106.252
		c-6.937,0-12.562-5.624-12.562-12.562v-20.272c0-6.938,5.625-12.563,12.562-12.563h106.252V903.026z"/>
	<path style="fill:#5284FC;" d="M1786.191,862.304v36.052h1.941v4.674h-75.78c-6.938,0-12.563-5.624-12.563-12.563v-20.273
		c0-6.939,5.624-12.563,12.563-12.563h75.78v4.673H1786.191z"/>
	<path style="fill:#EFF7FE;" d="M1786.188,898.354h-67.296c-6.908,0-12.51-5.6-12.51-12.509v-11.032c0-6.91,5.602-12.51,12.51-12.51
		h67.296V898.354z"/>
	
		<linearGradient id="SVGID_00000060023133744574081340000002199758511644221331_" gradientUnits="userSpaceOnUse" x1="1737.7344" y1="825.1612" x2="1737.7344" y2="856.9186">
		<stop  offset="0" style="stop-color:#40D5E6"/>
		<stop  offset="1" style="stop-color:#5577FF"/>
	</linearGradient>
	<path style="fill:url(#SVGID_00000060023133744574081340000002199758511644221331_);" d="M1797.141,857.617h-111.016
		c-4.307,0-7.797-3.49-7.797-7.797V831.06c0-4.307,3.49-7.798,7.797-7.798h111.016V857.617z"/>
	<path style="fill:#5284FC;" d="M1816.158,826.799v27.283h1.941v3.537h-80.546c-4.306,0-7.797-3.491-7.797-7.797V831.06
		c0-4.307,3.491-7.798,7.797-7.798h80.546v3.536H1816.158z"/>
	<path style="fill:#EFF7FE;" d="M1816.155,854.081h-72.677c-4.307,0-7.797-3.491-7.797-7.797v-11.688
		c0-4.307,3.49-7.798,7.797-7.798h72.677V854.081z"/>
</g>
<g>
	<g>
		<rect x="1450.555" y="161.115" style="fill:#E0E0E0;" width="154.269" height="21.878"/>
	</g>
	<g>
		<rect x="1628.855" y="161.115" style="fill:#1487E3;" width="102.374" height="21.878"/>
	</g>
	<g>
		<rect x="1751.455" y="161.115" style="fill:#E0E0E0;" width="247.172" height="21.878"/>
	</g>
	<g>
		<rect x="1179.511" y="492.415" style="fill:#E0E0E0;" width="158.826" height="21.877"/>
	</g>
	<g>
		<rect x="1432.322" y="243.484" style="fill:#1487E3;" width="151.685" height="21.877"/>
	</g>
	<g>
		<rect x="1356.48" y="325.853" style="fill:#E0E0E0;" width="64.811" height="21.877"/>
	</g>
	<g>
		<rect x="1291.672" y="409.438" style="fill:#E0E0E0;" width="145.571" height="21.877"/>
	</g>
	<g>
		<rect x="1459.25" y="409.438" style="fill:#1487E3;" width="200.963" height="21.877"/>
	</g>
	<g>
		<rect x="1179.511" y="326.461" style="fill:#E0E0E0;" width="151.684" height="21.877"/>
	</g>
	<g>
		<rect x="1179.511" y="409.438" style="fill:#E0E0E0;" width="90.002" height="21.877"/>
	</g>
	<g>
		<rect x="1451.847" y="326.461" style="fill:#E0E0E0;" width="84.911" height="21.877"/>
	</g>
	<g>
		<rect x="1178.902" y="161.115" style="fill:#E0E0E0;" width="151.684" height="21.878"/>
	</g>
	<g>
		<rect x="1313.044" y="575.391" style="fill:#E0E0E0;" width="151.684" height="21.878"/>
	</g>
	<g>
		<rect x="1179.511" y="575.391" style="fill:#E0E0E0;" width="98.409" height="21.878"/>
	</g>
	<g>
		<rect x="1178.902" y="243.484" style="fill:#E0E0E0;" width="216.229" height="21.877"/>
	</g>
	<g>
		<rect x="1889.197" y="243.484" style="fill:#1487E3;" width="193.25" height="21.877"/>
	</g>
	<g>
		<rect x="1740.516" y="243.484" style="fill:#E0E0E0;" width="113.313" height="21.877"/>
	</g>
	<g>
		<rect x="1651.788" y="576.606" style="fill:#E0E0E0;" width="113.313" height="21.878"/>
	</g>
	<g>
		<rect x="1624.845" y="243.484" style="fill:#E0E0E0;" width="70.736" height="21.877"/>
	</g>
	<g>
		<rect x="1361.659" y="493.022" style="fill:#1487E3;" width="87.375" height="21.879"/>
	</g>
	<g>
		<rect x="2021.191" y="161.115" style="fill:#E0E0E0;" width="96.626" height="21.878"/>
	</g>
	<g>
		<rect x="1502.026" y="576.606" style="fill:#1487E3;" width="120.116" height="21.878"/>
	</g>
	<g>
		<rect x="1355.387" y="161.115" style="fill:#E0E0E0;" width="70.737" height="21.878"/>
	</g>
</g>
<g>
	<g>
		<path style="fill:#223247;" d="M1279.229,551.898c0,0-13.479-29.485-40.719-16.567c-27.238,12.917-22.746,52.037-12.637,68.562
			s46.267,40.956,34.507,70.724c-11.761,29.766-26.645,52.793-26.645,52.793s73.013-3.302,81.156-42.089
			C1323.035,646.533,1279.229,551.898,1279.229,551.898z"/>
	</g>
	<path style="fill:#F08D29;" d="M1424.958,901.582c-2.214-10.811-3.94-10.447-5.16-26.064c-1.22-15.619-2.78-90.244-3.146-99.429
		c-0.367-9.185-2.13-52.43-12.035-70.509c-10.117-18.471-42.938-29.637-42.938-29.637s16.974,90.582,16.784,109.4
		c-0.057,5.664,1.752,15.965,4.368,27.822c0.022,0.092,0.041,0.186,0.059,0.282c0.549,2.613,0.568,4.847,0.322,6.88
		c-0.833,6.766-4.686,11.294-2.321,20.177l-0.047,4.743c0.235,0.887,0.471,1.779,0.707,2.676c3.338,12.81,6.423,26.471,7.867,32.598
		c0.302,1.272,0.531,2.221,0.676,2.766c2.211,8.285-0.487,3.877,3.434,24.622C1393.527,907.909,1429.225,922.42,1424.958,901.582z"
		/>
	<path style="fill:#8E4F3A;" d="M1239.339,960.656c0,0-28.067,36.492-35.681,79.787c-7.613,43.293,4.495,188.6,4.164,209.998
		c-0.332,21.397-20.237,74.644-16.256,114.951c3.981,40.309,37.188,243.231,37.188,243.231l26.139-4.817
		c0,0-3.114-210.546-0.626-227.465c2.488-16.92,7.481-78.593,8.477-85.56c0.996-6.967,63.182-189.902,63.182-221.117
		C1325.926,1038.451,1307.016,909.732,1239.339,960.656z"/>
	<path style="fill:#8E4F3A;" d="M1380.334,974.921c0,0,46.113,175.994,51.587,200.379c5.474,24.384,13.403,44.493,13.403,54.846
		c0,24.022,9.308,70.297,9.308,70.297l50.237,283.701h-28.794c0,0-71.231-185.467-79.246-227.506
		c-6.168-32.354-7.343-72.991-12.318-86.925c-4.977-13.934-89.439-166.072-89.439-166.072S1238.178,923.831,1380.334,974.921z"/>
	<path style="fill:#292C47;" d="M1445.324,1230.146c0,0-106.659,45.795-265.464,45.795c0,0,6.967-206.894,30.054-258.712
		c23.088-51.818,174.097-28.506,174.097-28.506S1445.324,1186.731,1445.324,1230.146z"/>
	<g>
		<path style="fill:#EDDAD3;" d="M1328.111,662.501c0,0,24.626,11.631,33.178,13.34c8.551,1.71,41.727,44.808,47.543,60.541
			c5.814,15.734,0,39.335-11.972,67.039c-11.972,27.705-0.685,36.94-6.157,64.646c-5.472,27.705-5.469,103.233-4.442,118.625
			c1.026,15.392-150.028,53.852-181.838,25.806c0,0,21.2-74.2,38.545-111.782c3.344-7.243,5.106-39.489,1.344-49.066
			c-3.763-9.577-46.175-81.063-46.175-81.063s-8.766-71.316,9.739-85.688c16.076-12.483,65.541-18.125,73.408-20.861
			C1289.15,661.3,1312.035,660.107,1328.111,662.501z"/>
	</g>
	<g>
		<path style="fill:#F08D29;" d="M1396.856,803.417c-11.964,27.703-0.682,36.946-6.15,64.648
			c-5.476,27.702-5.468,103.235-4.448,118.628c1.037,15.385-150.027,53.851-181.834,25.803c0,0,8.275-28.973,18.719-59.889
			c1.296-3.817,2.617-7.671,3.966-11.498c5.183-14.762,10.693-29.196,15.858-40.392c3.344-7.248,5.105-39.494,1.34-49.074
			c-1.451-3.696-8.665-16.619-16.957-31.089c-3.473-6.029-7.126-12.343-10.634-18.355c-9.873-16.939-18.572-31.616-18.572-31.616
			s-8.775-71.316,9.728-85.682c6.322-4.907,17.803-8.76,29.888-11.8c4.535-1.133,9.174-2.151,13.64-3.067
			c13.898-2.876,26.268-4.741,29.889-5.994c7.86-2.739,30.743-3.931,46.827-1.538c0,0,24.619,11.627,33.171,13.338
			c8.552,1.71,41.73,44.815,47.545,60.536C1414.651,752.115,1408.83,775.715,1396.856,803.417z"/>
	</g>
	<g>
		<path style="fill:#8E4F3A;" d="M1339.869,634.091c0,0-0.619,5.664-1.36,13.653c-0.347,3.636-0.718,7.768-1.089,12.047
			c-1.039,12.811-1.93,27.061-1.435,34.185c0,0-25.601,25.626-54.69-29.931c0,0,12.244-22.904,3.018-54.121
			C1275.087,578.707,1339.869,634.091,1339.869,634.091z"/>
	</g>
	<path style="fill:#8E4F3A;" d="M1261.623,667.983c0,0,30.972,50.284,65.935,48.168c48.394-2.928,22.91-43.901,22.91-43.901
		s-12.045-6.907-15.435-7.559c-3.391-0.652-53.437-1.286-53.437-1.286L1261.623,667.983z"/>
	<g>
		<path style="fill:#F08D29;" d="M1242.636,677.429c0,0-32.271-5.577-49.894,23.134c-20.168,32.854-19.832,47.972-22.943,64.551
			c-2.937,15.657-12.577,40.864-13.798,45.262c-1.221,4.396-24.632,49.198-14.937,68.177
			c9.746,19.078,101.888,33.087,102.975,37.103c0.692,2.557,10.897-32.358,10.897-32.358s-13.544-2.879-26.62-7.198
			c-15.906-5.255-31.857-15.3-29.672-23.462c4.815-17.983,21.063-59.049,25.548-67.581
			C1228.678,776.523,1268.286,689.687,1242.636,677.429z"/>
	</g>
	<path style="fill:#51578C;" d="M1480.396,1581.132c0,0,10.049-8.939,15.067-9.996c5.019-1.056,9.771-0.792,11.885,1.585
		c2.113,2.377,8.205,11.885,11.499,14.79c3.291,2.906,26.799,25.62,32.345,27.205c5.547,1.585,29.582,0.264,28.261,14.263
		c-1.319,13.998-20.865,20.073-55.729,16.903c-34.864-3.169-30.638-11.357-50.184-15.583c-19.545-4.226-20.865-13.998-17.432-25.884
		s17.276-23.711,15.847-26.878C1470.525,1574.368,1480.396,1581.132,1480.396,1581.132z"/>
	<path style="fill:#51578C;" d="M1234.076,1606.48c0,0,11.133-5.052,18.549-4.787c7.416,0.266,6.622,4.811,8.477,7.57
		c1.854,2.76,19.336,29.247,24.104,34.016c4.768,4.768,21.719,9.8,19.336,21.72c-2.385,11.919-23.839,16.687-50.327,13.243
		c-26.486-3.443-39.466-28.077-43.704-33.64c-4.237-5.562,10.065-41.319,14.304-43.836
		C1229.052,1598.251,1234.076,1606.48,1234.076,1606.48z"/>
	<path style="fill:#C9B9B3;" d="M1409.024,767.768c0,0-7.057,25.262-12.839,37.789c-5.781,12.527-4.793,27.945-4.336,37.341
		c0.457,9.394,0.213,20.443-2.784,36.12c0,0,0.434,13.32,3.055,13.213C1392.12,892.231,1404.357,858.704,1409.024,767.768z"/>
	<g>
		<path style="fill:#51578C;" d="M1258.437,537.113c0,0-15.164,7.582-14.322,29.766c0.843,22.186,22.587,39.309,32.014,34.795
			C1285.555,597.16,1258.437,537.113,1258.437,537.113z"/>
	</g>
	<g>
		<path style="fill:#8E4F3A;" d="M1354.475,503.415c0,0,29.486,19.376,26.959,60.375c-2.527,41-16.287,81.999-24.712,85.65
			c-8.424,3.65-44.284-9.718-51.396-13.483c-8.05-4.263-21.991-19.747-24.799-24.521c-2.809-4.773-32.481-69.829-3.838-94.541
			C1305.332,492.182,1320.216,491.059,1354.475,503.415z"/>
	</g>
	<g>
		<path style="fill:#223247;" d="M1330.887,552.277c0,0,25.287,9.294,50.694,7.034c0,0,8.274-72.465-64.315-72.465
			s-61.918,72.45-60.514,82.279c1.403,9.829,14.707,45.129,30.254,53.306c0,0-5.542-37.299,4.848-44.039
			C1302.243,571.653,1325.552,563.51,1330.887,552.277z"/>
	</g>
	<g>
		<path style="fill:#8E4F3A;" d="M1306.736,570.53c-1.479-8.246-9.267-16.007-18.252-7.582c-8.986,8.424,6.178,29.485,12.636,28.362
			C1307.579,590.188,1308.702,581.482,1306.736,570.53z"/>
	</g>
	<g>
		<path style="fill:#C44747;" d="M1378.363,831.743h-136.181c-3.171,0-5.741-2.569-5.741-5.739v-20.829c0-3.17,2.57-5.74,5.741-5.74
			h136.181V831.743z"/>
		<path style="fill:#E68E35;" d="M1359.937,864.053h-136.182c-3.171,0-5.739-2.569-5.739-5.739v-20.829
			c0-3.171,2.568-5.741,5.739-5.741h136.182V864.053z"/>
		<path style="fill:#58A668;" d="M1378.363,896.362h-136.181c-3.171,0-5.741-2.57-5.741-5.739v-20.83c0-3.17,2.57-5.74,5.741-5.74
			h136.181V896.362z"/>
		<path style="fill:#E55353;" d="M1439.797,831.743h-136.183c-3.169,0-5.738-2.569-5.738-5.739v-20.829
			c0-3.17,2.569-5.74,5.738-5.74h136.183V831.743z"/>
		<path style="fill:#FAE6DE;" d="M1439.797,828.211h-132.301c-3.17,0-5.738-2.569-5.738-5.739v-13.765c0-3.17,2.568-5.74,5.738-5.74
			h132.301V828.211z"/>
		<path style="fill:#5084C7;" d="M1431.574,799.435h-183.537c-3.67,0-6.645-2.975-6.645-6.645v-19.019
			c0-3.67,2.975-6.645,6.645-6.645h183.537V799.435z"/>
		<path style="fill:#5E9BEB;" d="M1431.574,799.435h-76.166c-2.387,0-4.322-1.935-4.322-4.323v-23.663
			c0-2.387,1.935-4.322,4.322-4.322h76.166V799.435z"/>
		<path style="fill:#FAE6DE;" d="M1431.574,795.902h-73.964c-2.388,0-4.322-1.935-4.322-4.322v-16.6
			c0-2.387,1.935-4.322,4.322-4.322h73.964V795.902z"/>
		<path style="fill:#FAA146;" d="M1421.37,864.053h-136.182c-3.17,0-5.74-2.569-5.74-5.739v-20.829c0-3.171,2.57-5.741,5.74-5.741
			h136.182V864.053z"/>
		<path style="fill:#6DBD7D;" d="M1439.797,896.362h-136.183c-3.169,0-5.738-2.57-5.738-5.739v-20.83c0-3.17,2.569-5.74,5.738-5.74
			h136.183V896.362z"/>
		<path style="fill:#FAE6DE;" d="M1421.37,860.727h-132.3c-3.17,0-5.74-2.57-5.74-5.74V840.81c0-3.171,2.57-5.74,5.74-5.74h132.3
			V860.727z"/>
		<path style="fill:#FAE6DE;" d="M1439.797,892.563h-132.301c-3.17,0-5.738-2.57-5.738-5.74v-13.23c0-3.171,2.568-5.74,5.738-5.74
			h132.301V892.563z"/>
	</g>
	<g>
		<path style="fill:#8E4F3A;" d="M1243.289,886.614c0,0-12.152,6.439-8.714,11.074c3.438,4.635,8.577,10.221,8.577,10.221
			L1243.289,886.614z"/>
		<path style="fill:#8E4F3A;" d="M1343.23,896.899l-57.762-6.076c5.272-2.434,13.84-6.877,12.282-9.427
			c-2.222-3.641-19.309,2.24-26.028,2.279c-6.155,0.036-14.243,3.485-15.559,4.064l-14.203-1.493l1.191,21.662
			c0,0,30.295,6.484,39.084,7.958c14.291,2.396,59.975-10.518,60.955-13.048C1344.962,898.255,1343.23,896.899,1343.23,896.899z"/>
	</g>
	<path style="fill:#F08D29;" d="M1254.937,883.297c0,0-5.078,26.527-13.544,37.721c0,0-55.335-19.968-69.076-25.107l34.511-30.358
		C1206.827,865.552,1225.927,876.891,1254.937,883.297z"/>
	<path style="fill:#8E4F3A;" d="M1432.885,884.965c0,0,0.984,20.604-11.394,25.155c-12.38,4.551-26.588,2.462-32.783-0.193
		c-6.196-2.655-21.913-10.531-16.99-16.641C1387.514,873.678,1432.885,884.965,1432.885,884.965z"/>
	<path style="fill:#8E4F3A;" d="M1428.986,899.252c0,0,16.025-0.235,14.558-6.008c-1.467-5.772-12.694-2.614-12.694-2.614
		L1428.986,899.252z"/>
	<path style="fill:#613628;" d="M1338.509,647.744c-0.347,3.636-0.718,7.768-1.089,12.047
		c-24.636-8.955-34.803-25.528-34.803-25.528C1308.949,639.434,1338.509,647.744,1338.509,647.744z"/>
</g>
</svg>
